<svg xmlns="http://www.w3.org/2000/svg" width="2000" height="666" viewBox="0 0 2000 666" role="img" aria-label="Adaptive mobile layout decision cover">
  <defs>
    <linearGradient id="paper" x1="0" y1="0" x2="1" y2="1">
      <stop offset="0" stop-color="#fffaf0"/>
      <stop offset="0.52" stop-color="#f7fff1"/>
      <stop offset="1" stop-color="#e9faf7"/>
    </linearGradient>
    <linearGradient id="ink" x1="0" y1="0" x2="1" y2="1">
      <stop offset="0" stop-color="#10231f"/>
      <stop offset="1" stop-color="#0f766e"/>
    </linearGradient>
  </defs>
  <rect width="2000" height="666" fill="url(#paper)"/>
  <rect x="92" y="86" width="1816" height="494" rx="54" fill="rgba(255,255,255,0.72)" stroke="#d7e6df" stroke-width="3"/>
  <g fill="none" stroke="#0f766e" stroke-opacity="0.28" stroke-width="3">
    <path d="M170 452 C360 320 510 514 704 364 S1028 224 1254 330 1600 456 1840 286"/>
    <path d="M230 512 C430 380 620 520 800 432 S1080 300 1310 384 1610 520 1810 388"/>
  </g>
  <g transform="translate(230 150)">
    <rect width="410" height="360" rx="42" fill="url(#ink)"/>
    <rect x="48" y="52" width="314" height="54" rx="16" fill="#f7fff1" opacity="0.92"/>
    <rect x="48" y="132" width="230" height="34" rx="12" fill="#c8f169" opacity="0.75"/>
    <rect x="48" y="190" width="302" height="28" rx="10" fill="#f7fff1" opacity="0.62"/>
    <rect x="48" y="238" width="302" height="28" rx="10" fill="#f7fff1" opacity="0.42"/>
  </g>
  <g transform="translate(760 150)">
    <rect width="1010" height="360" rx="42" fill="#ffffff" opacity="0.84" stroke="#d7e6df" stroke-width="3"/>
    <rect x="70" y="58" width="260" height="34" rx="17" fill="#0f766e" opacity="0.16"/>
    <rect x="70" y="126" width="700" height="52" rx="18" fill="#17130d" opacity="0.90"/>
    <rect x="70" y="205" width="840" height="30" rx="14" fill="#17130d" opacity="0.28"/>
    <rect x="70" y="254" width="710" height="30" rx="14" fill="#17130d" opacity="0.18"/>
    <rect x="70" y="304" width="160" height="42" rx="21" fill="#c8f169"/>
    <rect x="252" y="304" width="160" height="42" rx="21" fill="#f1eadc"/>
  </g>
  <text x="760" y="102" fill="#0f766e" font-family="Arial, sans-serif" font-size="28" font-weight="700" letter-spacing="5">MOBILE ADAPTIVE LAYOUT</text>
</svg>
