<svg xmlns="http://www.w3.org/2000/svg" width="2000" height="666" viewBox="0 0 2000 666" role="img" aria-label="Tag index abstract cover">
  <defs>
    <linearGradient id="bg" x1="0" y1="1" x2="1" y2="0">
      <stop offset="0" stop-color="#082f49"/>
      <stop offset="0.5" stop-color="#0f766e"/>
      <stop offset="1" stop-color="#f8fafc"/>
    </linearGradient>
  </defs>
  <rect width="2000" height="666" fill="url(#bg)"/>
  <g transform="translate(180 110)" fill="none" stroke="#ffffff" stroke-width="4" stroke-opacity="0.72">
    <path d="M86 0h340l112 112v214L328 536H86L0 450V86z"/>
    <circle cx="132" cy="132" r="42"/>
  </g>
  <g fill="#ffffff" fill-opacity="0.86">
    <rect x="820" y="132" width="320" height="84" rx="42"/>
    <rect x="1180" y="132" width="220" height="84" rx="42"/>
    <rect x="860" y="274" width="260" height="84" rx="42"/>
    <rect x="1160" y="274" width="370" height="84" rx="42"/>
    <rect x="910" y="416" width="300" height="84" rx="42"/>
    <rect x="1250" y="416" width="250" height="84" rx="42"/>
  </g>
  <g fill="#0f172a" fill-opacity="0.58" font-family="Arial, sans-serif" font-size="38" font-weight="700">
    <text x="900" y="187">AI Workflow</text>
    <text x="1240" y="187">Jekyll</text>
    <text x="940" y="329">Git</text>
    <text x="1240" y="329">OpenSearch</text>
    <text x="990" y="471">MySQL</text>
    <text x="1328" y="471">Android</text>
  </g>
</svg>
