<svg xmlns="http://www.w3.org/2000/svg" width="2000" height="666" viewBox="0 0 2000 666" role="img" aria-label="About engineering workbench abstract cover">
  <defs>
    <linearGradient id="bg" x1="0" y1="0" x2="1" y2="1">
      <stop offset="0" stop-color="#1c1917"/>
      <stop offset="0.55" stop-color="#78350f"/>
      <stop offset="1" stop-color="#fef3c7"/>
    </linearGradient>
  </defs>
  <rect width="2000" height="666" fill="url(#bg)"/>
  <g transform="translate(250 110)" fill="none" stroke="#fff7ed" stroke-opacity="0.64" stroke-width="4">
    <rect width="520" height="340" rx="42"/>
    <path d="M72 96h260M72 156h376M72 216h190M72 276h310"/>
  </g>
  <g transform="translate(900 82)" fill="none" stroke="#fed7aa" stroke-opacity="0.9" stroke-width="5">
    <path d="M0 320h720"/>
    <path d="M72 320V120h180v200"/>
    <path d="M318 320V48h180v272"/>
    <path d="M564 320V182h180v138"/>
  </g>
  <g fill="#ffffff" fill-opacity="0.86">
    <circle cx="1090" cy="202" r="18"/>
    <circle cx="1336" cy="130" r="18"/>
    <circle cx="1582" cy="264" r="18"/>
  </g>
  <path d="M132 542h1708" stroke="#fff7ed" stroke-opacity="0.28" stroke-width="3"/>
  <path d="M190 586h1220" stroke="#fff7ed" stroke-opacity="0.16" stroke-width="3"/>
</svg>
